<mxfile host="app.diagrams.net" modified="2022-07-27T07:00:13.633Z" agent="5.0 (Windows NT 10.0; Win64; x64) AppleWebKit/537.36 (KHTML, like Gecko) Chrome/103.0.0.0 Safari/537.36" etag="zpCgSar_hzwflvIzvdB2" version="20.2.1" type="github">
  <diagram id="DMTzIYwpDsRZIztIN_R4" name="페이지-1">
    <mxGraphModel dx="1422" dy="1963" grid="1" gridSize="10" guides="1" tooltips="1" connect="1" arrows="0" fold="1" page="1" pageScale="1" pageWidth="827" pageHeight="1169" math="0" shadow="0">
      <root>
        <mxCell id="0" />
        <mxCell id="1" parent="0" />
        <mxCell id="7e3Z0ddWmQZ67gegrWnh-1" value="이용자" style="shape=umlActor;verticalLabelPosition=bottom;verticalAlign=top;html=1;" vertex="1" parent="1">
          <mxGeometry x="10" y="140" width="60" height="100" as="geometry" />
        </mxCell>
        <mxCell id="7e3Z0ddWmQZ67gegrWnh-4" value="게시판 서비스" style="shape=umlFrame;whiteSpace=wrap;html=1;width=116;height=20;" vertex="1" parent="1">
          <mxGeometry x="100" y="-5" width="560" height="590" as="geometry" />
        </mxCell>
        <mxCell id="7e3Z0ddWmQZ67gegrWnh-23" style="orthogonalLoop=1;jettySize=auto;html=1;exitX=0;exitY=0.5;exitDx=0;exitDy=0;entryX=1;entryY=0.3333333333333333;entryDx=0;entryDy=0;entryPerimeter=0;rounded=0;startArrow=none;startFill=0;endArrow=none;endFill=0;" edge="1" parent="1" source="7e3Z0ddWmQZ67gegrWnh-5" target="7e3Z0ddWmQZ67gegrWnh-1">
          <mxGeometry relative="1" as="geometry" />
        </mxCell>
        <mxCell id="7e3Z0ddWmQZ67gegrWnh-5" value="회원 가입" style="rounded=1;whiteSpace=wrap;html=1;arcSize=40;fontColor=#000000;fillColor=#ffffc0;strokeColor=#ff0000;" vertex="1" parent="1">
          <mxGeometry x="160" y="150" width="120" height="40" as="geometry" />
        </mxCell>
        <mxCell id="7e3Z0ddWmQZ67gegrWnh-24" style="edgeStyle=none;rounded=0;orthogonalLoop=1;jettySize=auto;html=1;exitX=0;exitY=0.5;exitDx=0;exitDy=0;entryX=1;entryY=0.3333333333333333;entryDx=0;entryDy=0;entryPerimeter=0;startArrow=none;startFill=0;endArrow=none;endFill=0;" edge="1" parent="1" source="7e3Z0ddWmQZ67gegrWnh-7" target="7e3Z0ddWmQZ67gegrWnh-1">
          <mxGeometry relative="1" as="geometry" />
        </mxCell>
        <mxCell id="7e3Z0ddWmQZ67gegrWnh-32" style="edgeStyle=none;rounded=0;orthogonalLoop=1;jettySize=auto;html=1;exitX=1;exitY=0.25;exitDx=0;exitDy=0;entryX=0.5;entryY=1;entryDx=0;entryDy=0;dashed=1;startArrow=none;startFill=0;endArrow=classic;endFill=1;" edge="1" parent="1" source="7e3Z0ddWmQZ67gegrWnh-7" target="7e3Z0ddWmQZ67gegrWnh-9">
          <mxGeometry relative="1" as="geometry" />
        </mxCell>
        <mxCell id="7e3Z0ddWmQZ67gegrWnh-7" value="게시판 보기" style="rounded=1;whiteSpace=wrap;html=1;arcSize=40;fontColor=#000000;fillColor=#ffffc0;strokeColor=#ff0000;" vertex="1" parent="1">
          <mxGeometry x="160" y="240" width="120" height="40" as="geometry" />
        </mxCell>
        <mxCell id="7e3Z0ddWmQZ67gegrWnh-26" style="edgeStyle=none;rounded=0;orthogonalLoop=1;jettySize=auto;html=1;exitX=0;exitY=0.5;exitDx=0;exitDy=0;entryX=1;entryY=0.3333333333333333;entryDx=0;entryDy=0;entryPerimeter=0;startArrow=none;startFill=0;endArrow=none;endFill=0;" edge="1" parent="1" source="7e3Z0ddWmQZ67gegrWnh-8" target="7e3Z0ddWmQZ67gegrWnh-1">
          <mxGeometry relative="1" as="geometry" />
        </mxCell>
        <mxCell id="7e3Z0ddWmQZ67gegrWnh-33" style="edgeStyle=none;rounded=0;orthogonalLoop=1;jettySize=auto;html=1;exitX=1;exitY=0.25;exitDx=0;exitDy=0;entryX=0.5;entryY=1;entryDx=0;entryDy=0;dashed=1;startArrow=none;startFill=0;endArrow=classic;endFill=1;" edge="1" parent="1" source="7e3Z0ddWmQZ67gegrWnh-8" target="7e3Z0ddWmQZ67gegrWnh-9">
          <mxGeometry relative="1" as="geometry" />
        </mxCell>
        <mxCell id="7e3Z0ddWmQZ67gegrWnh-8" value="게시글&amp;nbsp; 보기" style="rounded=1;whiteSpace=wrap;html=1;arcSize=40;fontColor=#000000;fillColor=#ffffc0;strokeColor=#ff0000;" vertex="1" parent="1">
          <mxGeometry x="160" y="350" width="120" height="40" as="geometry" />
        </mxCell>
        <mxCell id="7e3Z0ddWmQZ67gegrWnh-27" style="edgeStyle=none;rounded=0;orthogonalLoop=1;jettySize=auto;html=1;exitX=0;exitY=0.5;exitDx=0;exitDy=0;entryX=1;entryY=0.3333333333333333;entryDx=0;entryDy=0;entryPerimeter=0;startArrow=none;startFill=0;endArrow=none;endFill=0;" edge="1" parent="1" source="7e3Z0ddWmQZ67gegrWnh-9" target="7e3Z0ddWmQZ67gegrWnh-1">
          <mxGeometry relative="1" as="geometry" />
        </mxCell>
        <mxCell id="7e3Z0ddWmQZ67gegrWnh-28" value="&amp;lt;&amp;lt;extend&amp;gt;&amp;gt;" style="edgeStyle=none;rounded=0;orthogonalLoop=1;jettySize=auto;html=1;exitX=1;exitY=0.5;exitDx=0;exitDy=0;entryX=0;entryY=0.5;entryDx=0;entryDy=0;startArrow=none;startFill=0;endArrow=classic;endFill=1;" edge="1" parent="1" source="7e3Z0ddWmQZ67gegrWnh-9" target="7e3Z0ddWmQZ67gegrWnh-11">
          <mxGeometry relative="1" as="geometry" />
        </mxCell>
        <mxCell id="7e3Z0ddWmQZ67gegrWnh-30" value="&amp;lt;&amp;lt;include&amp;gt;&amp;gt;" style="edgeStyle=none;rounded=0;orthogonalLoop=1;jettySize=auto;html=1;exitX=1;exitY=0.5;exitDx=0;exitDy=0;entryX=0;entryY=0.5;entryDx=0;entryDy=0;dashed=1;startArrow=none;startFill=0;endArrow=classic;endFill=1;" edge="1" parent="1" source="7e3Z0ddWmQZ67gegrWnh-9" target="7e3Z0ddWmQZ67gegrWnh-10">
          <mxGeometry relative="1" as="geometry" />
        </mxCell>
        <mxCell id="7e3Z0ddWmQZ67gegrWnh-9" value="회원 로그인" style="rounded=1;whiteSpace=wrap;html=1;arcSize=40;fontColor=#000000;fillColor=#ffffc0;strokeColor=#ff0000;" vertex="1" parent="1">
          <mxGeometry x="294" y="10" width="120" height="40" as="geometry" />
        </mxCell>
        <mxCell id="7e3Z0ddWmQZ67gegrWnh-41" style="edgeStyle=none;rounded=0;orthogonalLoop=1;jettySize=auto;html=1;exitX=1;exitY=0.5;exitDx=0;exitDy=0;entryX=0;entryY=0.5;entryDx=0;entryDy=0;startArrow=none;startFill=0;endArrow=none;endFill=0;" edge="1" parent="1" source="7e3Z0ddWmQZ67gegrWnh-10" target="7e3Z0ddWmQZ67gegrWnh-39">
          <mxGeometry relative="1" as="geometry" />
        </mxCell>
        <mxCell id="7e3Z0ddWmQZ67gegrWnh-10" value="인증" style="rounded=1;whiteSpace=wrap;html=1;arcSize=40;fontColor=#000000;fillColor=#ffffc0;strokeColor=#ff0000;" vertex="1" parent="1">
          <mxGeometry x="530" y="10" width="120" height="40" as="geometry" />
        </mxCell>
        <mxCell id="7e3Z0ddWmQZ67gegrWnh-11" value="로그인 실패" style="rounded=1;whiteSpace=wrap;html=1;arcSize=40;fontColor=#000000;fillColor=#ffffc0;strokeColor=#ff0000;" vertex="1" parent="1">
          <mxGeometry x="530" y="80" width="120" height="40" as="geometry" />
        </mxCell>
        <mxCell id="7e3Z0ddWmQZ67gegrWnh-34" style="edgeStyle=none;rounded=0;orthogonalLoop=1;jettySize=auto;html=1;exitX=0;exitY=0.5;exitDx=0;exitDy=0;entryX=1;entryY=0.5;entryDx=0;entryDy=0;dashed=1;startArrow=none;startFill=0;endArrow=classic;endFill=1;" edge="1" parent="1" source="7e3Z0ddWmQZ67gegrWnh-12" target="7e3Z0ddWmQZ67gegrWnh-7">
          <mxGeometry relative="1" as="geometry" />
        </mxCell>
        <mxCell id="7e3Z0ddWmQZ67gegrWnh-12" value="게시판 정렬" style="rounded=1;whiteSpace=wrap;html=1;arcSize=40;fontColor=#000000;fillColor=#ffffc0;strokeColor=#ff0000;" vertex="1" parent="1">
          <mxGeometry x="380" y="170" width="120" height="40" as="geometry" />
        </mxCell>
        <mxCell id="7e3Z0ddWmQZ67gegrWnh-35" style="edgeStyle=none;rounded=0;orthogonalLoop=1;jettySize=auto;html=1;exitX=0;exitY=0.5;exitDx=0;exitDy=0;dashed=1;startArrow=none;startFill=0;endArrow=classic;endFill=1;" edge="1" parent="1" source="7e3Z0ddWmQZ67gegrWnh-13">
          <mxGeometry relative="1" as="geometry">
            <mxPoint x="280" y="260" as="targetPoint" />
          </mxGeometry>
        </mxCell>
        <mxCell id="7e3Z0ddWmQZ67gegrWnh-13" value="게시판 검색" style="rounded=1;whiteSpace=wrap;html=1;arcSize=40;fontColor=#000000;fillColor=#ffffc0;strokeColor=#ff0000;" vertex="1" parent="1">
          <mxGeometry x="380" y="260" width="120" height="40" as="geometry" />
        </mxCell>
        <mxCell id="7e3Z0ddWmQZ67gegrWnh-36" style="edgeStyle=none;rounded=0;orthogonalLoop=1;jettySize=auto;html=1;exitX=0;exitY=0.5;exitDx=0;exitDy=0;entryX=1;entryY=0.5;entryDx=0;entryDy=0;dashed=1;startArrow=none;startFill=0;endArrow=classic;endFill=1;" edge="1" parent="1" source="7e3Z0ddWmQZ67gegrWnh-14" target="7e3Z0ddWmQZ67gegrWnh-8">
          <mxGeometry relative="1" as="geometry" />
        </mxCell>
        <mxCell id="7e3Z0ddWmQZ67gegrWnh-14" value="게시글 쓰기,수정,삭제" style="rounded=1;whiteSpace=wrap;html=1;arcSize=40;fontColor=#000000;fillColor=#ffffc0;strokeColor=#ff0000;" vertex="1" parent="1">
          <mxGeometry x="380" y="350" width="120" height="40" as="geometry" />
        </mxCell>
        <mxCell id="7e3Z0ddWmQZ67gegrWnh-37" style="edgeStyle=none;rounded=0;orthogonalLoop=1;jettySize=auto;html=1;exitX=0;exitY=0.5;exitDx=0;exitDy=0;dashed=1;startArrow=none;startFill=0;endArrow=classic;endFill=1;" edge="1" parent="1" source="7e3Z0ddWmQZ67gegrWnh-15">
          <mxGeometry relative="1" as="geometry">
            <mxPoint x="280" y="370" as="targetPoint" />
          </mxGeometry>
        </mxCell>
        <mxCell id="7e3Z0ddWmQZ67gegrWnh-15" value="댓글 보기,쓰기,수정,삭제" style="rounded=1;whiteSpace=wrap;html=1;arcSize=40;fontColor=#000000;fillColor=#ffffc0;strokeColor=#ff0000;" vertex="1" parent="1">
          <mxGeometry x="380" y="440" width="120" height="40" as="geometry" />
        </mxCell>
        <mxCell id="7e3Z0ddWmQZ67gegrWnh-38" style="edgeStyle=none;rounded=0;orthogonalLoop=1;jettySize=auto;html=1;exitX=0.5;exitY=1;exitDx=0;exitDy=0;entryX=0;entryY=1;entryDx=0;entryDy=0;dashed=1;startArrow=none;startFill=0;endArrow=classic;endFill=1;" edge="1" parent="1" source="7e3Z0ddWmQZ67gegrWnh-10" target="7e3Z0ddWmQZ67gegrWnh-10">
          <mxGeometry relative="1" as="geometry" />
        </mxCell>
        <mxCell id="7e3Z0ddWmQZ67gegrWnh-42" style="edgeStyle=none;rounded=0;orthogonalLoop=1;jettySize=auto;html=1;exitX=0;exitY=0.5;exitDx=0;exitDy=0;startArrow=none;startFill=0;endArrow=none;endFill=0;" edge="1" parent="1" source="7e3Z0ddWmQZ67gegrWnh-39">
          <mxGeometry relative="1" as="geometry">
            <mxPoint x="280" y="260" as="targetPoint" />
          </mxGeometry>
        </mxCell>
        <mxCell id="7e3Z0ddWmQZ67gegrWnh-43" style="edgeStyle=none;rounded=0;orthogonalLoop=1;jettySize=auto;html=1;exitX=0;exitY=0.5;exitDx=0;exitDy=0;entryX=1;entryY=0.5;entryDx=0;entryDy=0;startArrow=none;startFill=0;endArrow=none;endFill=0;" edge="1" parent="1" source="7e3Z0ddWmQZ67gegrWnh-39" target="7e3Z0ddWmQZ67gegrWnh-8">
          <mxGeometry relative="1" as="geometry">
            <Array as="points">
              <mxPoint x="520" y="310" />
            </Array>
          </mxGeometry>
        </mxCell>
        <mxCell id="7e3Z0ddWmQZ67gegrWnh-44" style="edgeStyle=none;rounded=0;orthogonalLoop=1;jettySize=auto;html=1;exitX=0;exitY=0.5;exitDx=0;exitDy=0;entryX=1;entryY=0.5;entryDx=0;entryDy=0;startArrow=none;startFill=0;endArrow=none;endFill=0;" edge="1" parent="1" source="7e3Z0ddWmQZ67gegrWnh-39" target="7e3Z0ddWmQZ67gegrWnh-14">
          <mxGeometry relative="1" as="geometry" />
        </mxCell>
        <mxCell id="7e3Z0ddWmQZ67gegrWnh-45" style="edgeStyle=none;rounded=0;orthogonalLoop=1;jettySize=auto;html=1;exitX=0;exitY=0.5;exitDx=0;exitDy=0;entryX=1;entryY=0.5;entryDx=0;entryDy=0;startArrow=none;startFill=0;endArrow=none;endFill=0;" edge="1" parent="1" source="7e3Z0ddWmQZ67gegrWnh-39" target="7e3Z0ddWmQZ67gegrWnh-15">
          <mxGeometry relative="1" as="geometry" />
        </mxCell>
        <mxCell id="7e3Z0ddWmQZ67gegrWnh-39" value="DB" style="html=1;dropTarget=0;strokeColor=default;" vertex="1" parent="1">
          <mxGeometry x="730" y="110" width="80" height="100" as="geometry" />
        </mxCell>
      </root>
    </mxGraphModel>
  </diagram>
</mxfile>
